<?xml version="1.0" encoding="utf-8"?>
<!-- Generator: Adobe Illustrator 27.5.0, SVG Export Plug-In . SVG Version: 6.00 Build 0)  -->
<svg version="1.1" id="Layer_1" xmlns="http://www.w3.org/2000/svg" xmlns:xlink="http://www.w3.org/1999/xlink" x="0px" y="0px"
	 viewBox="0 0 548.5 177" style="enable-background:new 0 0 548.5 177;" xml:space="preserve">
<style type="text/css">
	.st0{fill:#FFFFFF;}
</style>
<g>
	<path class="st0" d="M0.2,73.1V1h29.3C37.3,1,44,2.6,49.8,5.6c5.8,3.1,10.3,7.3,13.5,12.7c3.2,5.4,4.8,11.7,4.8,18.7
		c0,7.1-1.6,13.3-4.8,18.7c-3.2,5.4-7.7,9.7-13.5,12.7c-5.8,3.1-12.5,4.6-20.2,4.6H0.2z M7.9,66.5h21.3c6.4,0,11.9-1.3,16.6-3.8
		c4.7-2.5,8.4-6,11-10.4c2.6-4.4,3.9-9.5,3.9-15.3c0-5.8-1.3-10.9-3.9-15.3c-2.6-4.4-6.3-7.8-11-10.3c-4.7-2.5-10.2-3.8-16.6-3.8
		H7.9V66.5z"/>
	<path class="st0" d="M78.6,73.1V1h7.6v72H78.6z"/>
	<path class="st0" d="M292.5,1c-20.2,0-36.6,16.4-36.6,36.6s16.4,36.6,36.6,36.6c20.2,0,36.6-16.4,36.6-36.6S312.7,1,292.5,1z
		 M321.6,37.6c0,16.1-13.1,29.1-29.1,29.1c-16.1,0-29.1-13.1-29.1-29.1s13.1-29.1,29.1-29.1C308.6,8.4,321.6,21.5,321.6,37.6z"/>
	<path class="st0" d="M131.8,1c-20.2,0-36.6,16.4-36.6,36.6s16.4,36.6,36.6,36.6s36.6-16.4,36.6-36.6S152,1,131.8,1z M161,37.6
		c0,16.1-13.1,29.1-29.1,29.1c-16.1,0-29.1-13.1-29.1-29.1s13.1-29.1,29.1-29.1C147.9,8.4,161,21.5,161,37.6z"/>
	<path class="st0" d="M213.9,39.9v7.6h25c-4.1,11.2-14.8,19.2-27.3,19.2c-16.1,0-29.1-13.1-29.1-29.1s13.1-29.1,29.1-29.1
		c12.4,0,22.9,7.7,27.2,18.6l6.5-3.8C239.6,10.2,226.6,1,211.5,1C191.4,1,175,17.4,175,37.6s16.4,36.6,36.6,36.6
		c11.8,0,22.3-5.6,28.9-14.3c0,7,0,14.3,0,14.3h7.6V39.9H213.9z"/>
</g>
<g>
	<path class="st0" d="M38.1,176.9c-5.5,0-10.5-0.9-15.1-2.7c-4.6-1.8-8.6-4.4-12-7.7c-3.4-3.3-6-7.2-7.9-11.7
		c-1.9-4.5-2.8-9.4-2.8-14.7c0-5.3,0.9-10.2,2.8-14.7c1.9-4.5,4.6-8.4,8-11.7c3.4-3.3,7.4-5.9,12.1-7.7c4.6-1.8,9.7-2.7,15.1-2.7
		c5.2,0,10.2,0.9,14.8,2.6c4.6,1.8,8.5,4.4,11.7,7.9l-4.9,4.9c-3-3-6.2-5.2-9.8-6.6c-3.6-1.3-7.5-2-11.6-2c-4.3,0-8.4,0.7-12.1,2.2
		c-3.7,1.5-7,3.6-9.7,6.3c-2.8,2.7-4.9,5.9-6.5,9.5c-1.6,3.6-2.3,7.6-2.3,12c0,4.3,0.8,8.3,2.3,12c1.6,3.6,3.7,6.8,6.5,9.5
		c2.8,2.7,6,4.8,9.7,6.3c3.7,1.5,7.8,2.2,12.1,2.2c4.1,0,8-0.7,11.6-2.1c3.6-1.4,6.9-3.6,9.8-6.6l4.9,4.9c-3.2,3.5-7.1,6.2-11.7,8
		C48.4,176,43.4,176.9,38.1,176.9z"/>
	<path class="st0" d="M212,176.9l-17.9-25.1c1-0.3,1.9-0.7,2.8-1.1c4.5-2,7.9-4.8,10.3-8.6c2.4-3.7,3.6-8.2,3.6-13.3
		c0-5.3-1.2-9.8-3.6-13.6c-2.4-3.7-5.8-6.6-10.3-8.6c-4.5-2-9.8-3-16-3h-27.4v73.3h7.7v-23.2v-6.6v-36.7h19.5
		c7.3,0,12.9,1.6,16.7,4.8c3.8,3.2,5.7,7.7,5.7,13.6c0,5.8-1.9,10.3-5.7,13.5c-3.4,2.8-8.5,5-15,5c1.3,1.9,3,4.1,4.5,6.1l16.7,23.6
		H212z"/>
	<path class="st0" d="M245.8,176.9l-32.4-73.3h8.4l30.3,69h-4.6l30.6-69h7.8l-32.4,73.3H245.8z"/>
	<polygon class="st0" points="341.7,176.9 308.2,103.6 300.6,103.6 267.1,176.9 275.2,176.9 283.9,157.3 286.7,151 304.4,111.6 
		322,151 324.8,157.3 333.6,176.9 	"/>
	<polygon class="st0" points="144,176.9 110.5,103.6 102.9,103.6 69.4,176.9 77.5,176.9 86.2,157.3 89,151 106.7,111.6 124.3,151 
		127.1,157.3 135.9,176.9 	"/>
	<path class="st0" d="M350.8,176.9v-73.3h7.7v66.6h41v6.7H350.8z"/>
	<polygon class="st0" points="457.2,103.6 457.2,136.4 418.1,136.4 418.1,103.6 410.4,103.6 410.4,176.9 418.1,176.9 418.1,144.1 
		457.2,144.1 457.2,176.9 465,176.9 465,103.6 	"/>
	<path class="st0" d="M511.9,103.8c-20.2,0-36.6,16.4-36.6,36.6s16.4,36.6,36.6,36.6c20.2,0,36.6-16.4,36.6-36.6
		S532.1,103.8,511.9,103.8z M541.1,140.3c0,16.1-13.1,29.1-29.1,29.1c-16.1,0-29.1-13.1-29.1-29.1s13.1-29.1,29.1-29.1
		C528,111.2,541.1,124.3,541.1,140.3z"/>
</g>
</svg>
