<?xml version="1.0" encoding="utf-8"?>
<!-- Generator: Adobe Illustrator 27.5.0, SVG Export Plug-In . SVG Version: 6.00 Build 0)  -->
<svg version="1.1" id="Layer_1" xmlns="http://www.w3.org/2000/svg" xmlns:xlink="http://www.w3.org/1999/xlink" x="0px" y="0px"
	 viewBox="0 0 48 48" style="enable-background:new 0 0 48 48;" xml:space="preserve">
<style type="text/css">
	.st0{fill:#272727;}
	.st1{fill:#FFFFFF;}
</style>
<rect x="-0.2" y="-0.3" class="st0" width="48.4" height="48.7"/>
<path class="st1" d="M7.2,41.9V6.1h14.5c3.9,0,7.2,0.8,10.1,2.3c2.9,1.5,5.1,3.6,6.7,6.3c1.6,2.7,2.4,5.8,2.4,9.3
	c0,3.5-0.8,6.6-2.4,9.3c-1.6,2.7-3.8,4.8-6.7,6.3c-2.9,1.5-6.2,2.3-10,2.3L7.2,41.9L7.2,41.9z M11,38.6h10.6c3.2,0,5.9-0.6,8.2-1.9
	c2.3-1.2,4.2-3,5.5-5.2c1.3-2.2,1.9-4.7,1.9-7.6s-0.6-5.4-1.9-7.6s-3.1-3.9-5.5-5.1s-5.1-1.9-8.2-1.9H11V38.6z"/>
</svg>
