<svg width="30" height="30" viewBox="0 0 30 30" fill="none" xmlns="http://www.w3.org/2000/svg">
<rect x="0.75" y="0.75" width="28.5" height="28.5" rx="4.25" stroke="#8B8B8B" stroke-width="1.5"/>
<path d="M29.25 0.75V17.25H0.75V0.75H29.25Z" stroke="#8B8B8B" stroke-width="1.5"/>
<path d="M4 18C4 15.0826 5.15893 12.2847 7.22183 10.2218C9.28473 8.15893 12.0826 7 15 7C17.9174 7 20.7153 8.15893 22.7782 10.2218C24.8411 12.2847 26 15.0826 26 18" stroke="#8B8B8B" stroke-width="1.5"/>
<path d="M15 19V26.5M12.75 21.625H17.25" stroke="#8B8B8B"/>
<path d="M15.0928 12.4316L15.2539 12.1787L15.2686 12.4766L15.4912 12.2734L15.4277 12.5684L15.6934 12.4307L15.5566 12.6973L15.8496 12.6328L15.6465 12.8564L15.9463 12.8701L15.6953 13.0322L15.9834 13.124L15.6934 13.2178L15.9453 13.3789L15.6484 13.3936L15.8506 13.6162L15.5566 13.5527L15.6934 13.8184L15.4277 13.6816L15.4912 13.9746L15.2686 13.7715L15.2539 14.0703L15.0928 13.8184L15 14.1074L14.9072 13.8184L14.7451 14.0703L14.7314 13.7734L14.5078 13.9756L14.5723 13.6816L14.3057 13.8184L14.4434 13.5527L14.1494 13.6162L14.3535 13.3936L14.0527 13.3789L14.3047 13.2178L14.0156 13.125L14.3066 13.0322L14.0537 12.8701L14.3516 12.8564L14.1484 12.6328L14.4434 12.6973L14.3057 12.4307L14.5723 12.5684L14.5078 12.2744L14.7314 12.4785L14.7451 12.1777L14.9072 12.4297L14.999 12.1406L15.0928 12.4316Z" stroke="#8B8B8B"/>
</svg>
