<svg width="1166" height="262" viewBox="0 0 1166 262" fill="none" xmlns="http://www.w3.org/2000/svg">
<path d="M1164.05 167.25C1164.05 149.517 1159.97 133.65 1151.8 119.65C1143.87 105.65 1132.79 94.5671 1118.55 86.4004C1104.55 78.0004 1088.45 73.7998 1070.25 73.7998C1052.05 73.7998 1035.95 78.0004 1021.95 86.4004C1007.95 94.567 996.87 105.767 988.703 120C980.536 134 976.453 149.75 976.453 167.25L976.465 168.886C976.712 185.74 980.792 201.061 988.703 214.85C996.87 228.85 1007.95 240.05 1021.95 248.45C1035.52 256.362 1051.05 260.441 1068.55 260.688L1070.25 260.7C1088.45 260.7 1104.55 256.617 1118.55 248.45C1132.79 240.05 1143.87 228.85 1151.8 214.85C1159.71 201.061 1163.79 185.74 1164.04 168.886L1164.05 167.25ZM1130.5 167.25C1130.5 155.026 1127.97 144.105 1122.92 134.464L1122.91 134.455C1118.01 124.881 1111.29 117.265 1102.75 111.586L1101.91 111.042C1093 105.326 1082.46 102.45 1070.25 102.45C1058.29 102.45 1047.75 105.321 1038.59 111.041L1038.59 111.042C1029.65 116.776 1022.65 124.573 1017.59 134.455L1017.59 134.464C1012.54 144.105 1010 155.026 1010 167.25L1010.01 168.393C1010.16 180.159 1012.7 190.818 1017.59 200.386C1022.64 210.036 1029.64 217.721 1038.59 223.458C1047.75 229.178 1058.29 232.05 1070.25 232.05V233.05C1058.12 233.05 1047.39 230.133 1038.05 224.3C1028.95 218.466 1021.84 210.649 1016.7 200.85C1011.73 191.13 1009.17 180.316 1009.01 168.406L1009 167.25C1009 155.27 1011.41 144.494 1016.23 134.923L1016.7 134C1021.84 123.967 1028.95 116.034 1038.05 110.2C1047.39 104.367 1058.12 101.45 1070.25 101.45L1071.41 101.459C1083.29 101.636 1093.64 104.549 1102.45 110.2C1111.55 116.033 1118.67 123.967 1123.8 134C1128.94 143.8 1131.5 154.883 1131.5 167.25L1131.5 168.406C1131.34 180.316 1128.78 191.13 1123.8 200.85C1118.67 210.65 1111.55 218.466 1102.45 224.3C1093.35 230.133 1082.62 233.05 1070.25 233.05V232.05C1082.46 232.05 1093 229.174 1101.91 223.458C1110.86 217.721 1117.86 210.036 1122.92 200.386C1127.97 190.509 1130.5 179.47 1130.5 167.25ZM1165.04 168.901C1164.79 185.914 1160.67 201.403 1152.67 215.348L1152.67 215.347C1144.65 229.501 1133.44 240.826 1119.06 249.312L1119.06 249.313C1104.89 257.58 1088.61 261.7 1070.25 261.7C1051.9 261.7 1035.62 257.58 1021.45 249.313L1021.44 249.308C1007.3 240.822 996.091 229.5 987.839 215.354L987.836 215.348C979.577 200.953 975.453 184.913 975.453 167.25C975.453 149.588 979.576 133.661 987.839 119.496C996.091 105.116 1007.3 93.7909 1021.45 85.5361C1035.62 77.0368 1051.9 72.7998 1070.25 72.7998C1088.61 72.7998 1104.88 77.0356 1119.05 85.5322H1119.05C1133.43 93.7842 1144.64 104.992 1152.67 119.146C1160.93 133.314 1165.05 149.357 1165.05 167.25L1165.04 168.901Z" fill="#323738"/>
<path d="M930.854 78V256.5H963.404V78H930.854ZM969.005 27.9502C969.005 22.1169 966.788 17.1004 962.354 12.9004C958.286 8.60571 953.451 6.39116 947.85 6.25684L947.305 6.25C941.471 6.25 936.338 8.46706 931.904 12.9004L931.518 13.2959C927.576 17.4142 925.604 22.299 925.604 27.9502L925.611 28.4951C925.739 34.1035 927.836 39.055 931.904 43.3496C936.199 47.4183 941.151 49.5164 946.76 49.6436L947.305 49.6504C953.138 49.6504 958.154 47.5496 962.354 43.3496C966.649 39.0549 968.864 34.1036 968.998 28.4951L969.005 27.9502ZM964.404 257.5H929.854V77H964.404V257.5ZM969.998 28.5215C969.857 34.4052 967.523 39.5952 963.062 44.0566C958.678 48.4403 953.409 50.6504 947.305 50.6504C941.393 50.6504 936.163 48.5789 931.651 44.4795L931.217 44.0762L931.197 44.0576L931.179 44.0381C926.812 39.4287 924.605 34.0523 924.604 27.9502C924.604 21.8465 926.814 16.577 931.197 12.1934C935.803 7.588 941.185 5.25 947.305 5.25C953.425 5.25 958.698 7.58816 963.076 12.207C967.676 16.5795 970.005 21.8433 970.005 27.9502L969.998 28.5215Z" fill="#323738"/>
<path d="M875.456 1V256.5H907.656V1H875.456ZM908.656 257.5H874.456V0H908.656V257.5Z" fill="#323738"/>
<path d="M862.164 167.25C862.164 149.517 858.081 133.65 849.914 119.65C841.981 105.65 830.897 94.5671 816.664 86.4004C802.664 78.0004 786.564 73.7998 768.364 73.7998C750.164 73.7998 734.064 78.0004 720.064 86.4004C706.065 94.567 694.981 105.767 686.814 120C678.648 134 674.564 149.75 674.564 167.25L674.576 168.886C674.823 185.74 678.903 201.061 686.814 214.85C694.981 228.85 706.064 240.05 720.064 248.45C733.627 256.362 749.16 260.441 766.664 260.688L768.364 260.7C785.995 260.7 801.656 256.868 815.346 249.204L816.664 248.45C830.897 240.05 841.981 228.85 849.914 214.85C857.826 201.061 861.905 185.74 862.152 168.886L862.164 167.25ZM828.614 167.25C828.614 155.026 826.078 144.105 821.028 134.464L821.024 134.455C816.126 124.881 809.405 117.265 800.857 111.586L800.024 111.042C791.108 105.326 780.568 102.45 768.364 102.45C756.403 102.45 745.859 105.321 736.703 111.041L736.704 111.042C727.76 116.776 720.761 124.573 715.705 134.455L715.7 134.464C710.65 144.105 708.114 155.026 708.114 167.25L708.122 168.393C708.276 180.159 710.807 190.818 715.7 200.386C720.755 210.036 727.754 217.721 736.704 223.458C745.86 229.178 756.403 232.05 768.364 232.05V233.05C756.231 233.05 745.497 230.133 736.164 224.3C727.064 218.466 719.948 210.649 714.814 200.85C709.842 191.13 707.278 180.316 707.122 168.406L707.114 167.25C707.114 155.27 709.523 144.494 714.341 134.923L714.814 134C719.948 123.967 727.064 116.034 736.164 110.2C745.497 104.367 756.231 101.45 768.364 101.45L769.52 101.459C781.401 101.636 791.749 104.549 800.564 110.2C809.664 116.033 816.781 123.967 821.914 134C827.047 143.8 829.614 154.883 829.614 167.25L829.607 168.406C829.452 180.316 826.887 191.13 821.914 200.85C816.781 210.65 809.664 218.466 800.564 224.3C791.464 230.133 780.731 233.05 768.364 233.05V232.05C780.568 232.05 791.108 229.174 800.024 223.458C808.975 217.721 815.974 210.036 821.028 200.386C826.08 190.509 828.614 179.47 828.614 167.25ZM863.152 168.901C862.903 185.914 858.783 201.403 850.782 215.348L850.781 215.347C842.759 229.501 831.551 240.826 817.173 249.312L817.168 249.313C802.997 257.58 786.719 261.7 768.364 261.7C750.01 261.7 733.732 257.58 719.561 249.313L719.55 249.308C705.407 240.822 694.202 229.5 685.95 215.354L685.947 215.348C677.688 200.953 673.564 184.913 673.564 167.25C673.564 149.588 677.687 133.661 685.95 119.496C694.202 105.116 705.409 93.7909 719.561 85.5361C733.731 77.0368 750.009 72.7998 768.364 72.7998C786.717 72.7998 802.993 77.0356 817.161 85.5322H817.162C831.544 93.7842 842.755 104.992 850.778 119.146C859.042 133.314 863.164 149.357 863.164 167.25L863.152 168.901Z" fill="#323738"/>
<path d="M691.086 78H635.785V53.8496C635.785 46.1643 637.757 40.1214 641.698 35.7207L642.086 35.2998C646.155 31.0053 651.975 28.7905 659.547 28.6562L660.285 28.6504H698.086V1H653.985V0H699.086V29.6504H660.285C652.54 29.6505 646.77 31.8086 642.812 35.9873C638.835 40.1844 636.785 46.0932 636.785 53.8496V77H692.086V106.65H636.785V257.5H602.235V106.65H571.086V105.65H603.235V256.5H635.785V105.65H691.086V78ZM602.235 51.75C602.235 35.6924 606.728 23.0441 615.828 13.9434C625.157 4.61411 637.919 3.81175e-05 653.985 0V1L652.508 1.01367C637.342 1.28919 625.351 5.8348 616.535 14.6504L616.123 15.0684C607.531 23.9041 603.235 36.1313 603.235 51.75V78H571.086V77H602.235V51.75Z" fill="#323738"/>
<path d="M487.356 106.65H456.557V105.65H488.356V205.75L488.369 207.206C488.638 222.153 493.067 234.034 501.656 242.85C510.472 251.665 522.463 256.211 537.629 256.486L539.106 256.5H581.106V228.85H545.057V227.85H582.106V257.5H539.106C523.291 257.5 510.678 253.03 501.389 243.991L500.949 243.557L500.94 243.548C491.852 234.22 487.356 221.581 487.356 205.75V106.65ZM520.557 203.65V105.65H582.807V106.65H521.557V203.65L521.562 204.35C521.686 211.519 523.719 217.208 527.582 221.511C531.785 225.703 537.568 227.85 545.057 227.85V228.85L544.339 228.844C536.979 228.709 531.151 226.495 526.856 222.2C522.788 217.679 520.69 211.735 520.562 204.367L520.557 203.65ZM520.557 33.2002H488.356V78H456.557V77H487.356V32.2002H521.557V77H582.807V78H520.557V33.2002Z" fill="#323738"/>
<path d="M381.109 128.75C381.109 112.692 385.602 100.044 394.702 90.9434C404.031 81.6141 416.793 77 432.859 77V78L431.382 78.0137C416.216 78.2892 404.225 82.8348 395.409 91.6504L394.997 92.0684C386.405 100.904 382.109 113.131 382.109 128.75V256.5H414.31V130.85C414.31 122.916 416.409 116.733 420.609 112.3C424.904 108.005 430.732 105.79 438.093 105.656L438.81 105.65H470.609V106.65H438.81C431.315 106.65 425.527 108.8 421.323 113C417.355 117.196 415.31 123.101 415.31 130.85V257.5H381.109V128.75ZM470.609 77V78H432.859V77H470.609Z" fill="#323738"/>
<path d="M369.867 167.25C369.867 149.517 365.784 133.65 357.617 119.65C349.684 105.65 338.601 94.5671 324.367 86.4004C310.367 78.0004 294.267 73.7998 276.067 73.7998C257.867 73.7998 241.768 78.0004 227.768 86.4004C213.768 94.567 202.684 105.767 194.518 120C186.351 134 182.268 149.75 182.268 167.25L182.279 168.886C182.527 185.74 186.606 201.061 194.518 214.85C202.684 228.85 213.768 240.05 227.768 248.45C241.33 256.362 256.863 260.441 274.367 260.688L276.067 260.7C293.699 260.7 309.359 256.868 323.049 249.204L324.367 248.45C338.601 240.05 349.684 228.85 357.617 214.85C365.529 201.061 369.608 185.74 369.855 168.886L369.867 167.25ZM336.317 167.25C336.317 155.026 333.781 144.105 328.731 134.464L328.728 134.455C323.829 124.881 317.108 117.265 308.561 111.586L307.728 111.042C298.811 105.326 288.271 102.45 276.067 102.45C264.106 102.45 253.562 105.321 244.406 111.041L244.407 111.042C235.463 116.776 228.464 124.573 223.408 134.455L223.403 134.464C218.353 144.105 215.817 155.026 215.817 167.25L215.825 168.393C215.979 180.159 218.51 190.818 223.403 200.386C228.458 210.036 235.457 217.721 244.407 223.458C253.563 229.178 264.106 232.05 276.067 232.05V233.05C263.934 233.05 253.2 230.133 243.867 224.3C234.767 218.466 227.651 210.649 222.518 200.85C217.545 191.13 214.981 180.316 214.825 168.406L214.817 167.25C214.817 155.27 217.227 144.494 222.044 134.923L222.518 134C227.491 124.28 234.325 116.531 243.021 110.753L243.867 110.2C253.2 104.367 263.934 101.45 276.067 101.45L277.223 101.459C289.104 101.636 299.452 104.549 308.268 110.2C317.367 116.033 324.484 123.967 329.617 134C334.751 143.8 337.317 154.883 337.317 167.25L337.311 168.406C337.155 180.316 334.59 191.13 329.617 200.85C324.484 210.65 317.368 218.466 308.268 224.3C299.168 230.133 288.434 233.05 276.067 233.05V232.05C288.271 232.05 298.811 229.174 307.728 223.458C316.678 217.721 323.677 210.036 328.731 200.386C333.783 190.509 336.317 179.47 336.317 167.25ZM370.855 168.901C370.606 185.914 366.487 201.403 358.485 215.348L358.484 215.347C350.463 229.501 339.254 240.826 324.876 249.312L324.871 249.313C310.7 257.58 294.422 261.7 276.067 261.7C257.713 261.7 241.435 257.58 227.264 249.313L227.253 249.308C213.11 240.822 201.905 229.5 193.653 215.354L193.65 215.348C185.391 200.953 181.268 184.913 181.268 167.25C181.268 149.588 185.39 133.661 193.653 119.496C201.906 105.116 213.113 93.7909 227.264 85.5361C241.434 77.0368 257.712 72.7998 276.067 72.7998C294.42 72.7998 310.696 77.0356 324.864 85.5322H324.865C339.247 93.7842 350.458 104.992 358.481 119.146C366.745 133.314 370.867 149.357 370.867 167.25L370.855 168.901Z" fill="#323738"/>
<path d="M0 10.5H104.25V11.5H1V256.5H34.6006V176.35H103.551L105.055 176.34C120.046 176.135 133.499 172.854 145.414 166.496L146.601 165.85C159.2 158.85 169.117 149.166 176.351 136.8C183.584 124.594 187.313 110.855 187.539 95.583L187.551 94.0996C187.551 78.0506 184.046 63.9726 177.039 51.8652L176.351 50.7002C168.884 38.3335 158.85 28.7667 146.25 22C134.044 15.2189 120.524 11.7217 105.69 11.5098L104.25 11.5V10.5C119.803 10.5 133.968 14.0355 146.724 21.1191C159.084 27.7574 169.01 37.0614 176.49 49.0176L177.206 50.1836C184.78 62.7279 188.551 77.3782 188.551 94.0996L188.539 95.5977C188.311 111.027 184.54 124.937 177.213 137.304L177.214 137.305C169.889 149.827 159.842 159.638 147.086 166.725C134.321 173.816 119.8 177.35 103.551 177.35H35.6006V257.5H0V10.5ZM152.95 94.0996C152.95 83.3921 150.682 74.3738 146.197 66.9961L145.757 66.2871L145.75 66.2754C141.094 58.7373 134.943 52.9274 127.288 48.8301L126.543 48.4395C118.778 44.4459 110.253 42.381 100.953 42.2559L100.051 42.25H35.6006V145.6H99.7002V146.6H34.6006V41.25H100.051C109.85 41.2501 118.834 43.35 127 47.5498C135.167 51.7498 141.701 57.8167 146.601 65.75C151.5 73.4499 153.95 82.8998 153.95 94.0996C153.95 105.066 151.501 114.517 146.601 122.45C141.934 130.383 135.4 136.45 127 140.65C118.833 144.617 109.733 146.6 99.7002 146.6V145.6C109.598 145.6 118.547 143.644 126.563 139.75C134.789 135.635 141.174 129.703 145.738 121.943L145.744 121.934L145.75 121.925C150.536 114.175 152.95 104.914 152.95 94.0996Z" fill="#323738"/>
</svg>
