<svg width="35" height="35" viewBox="0 0 35 35" fill="none" xmlns="http://www.w3.org/2000/svg">
<rect x="1" y="1" width="32.9215" height="32.9215" stroke="white" stroke-width="2"/>
<path d="M11.7583 20.3882L10.565 23.9674C10.5217 24.0974 10.4564 24.1407 10.3264 24.1407H8.15715C8.02717 24.1407 7.98384 24.0754 8.00514 23.9241L12.4736 11.2127C12.5602 10.9961 12.6256 10.7787 12.6689 10.0414C12.6689 9.95476 12.7122 9.8894 12.7989 9.8894H15.8141C15.9228 9.8894 15.9441 9.9107 15.9661 10.0194L20.9772 23.9454C20.9985 24.0753 20.9772 24.1407 20.8472 24.1407H18.4181C18.3094 24.1407 18.2447 24.0974 18.2014 24.0107L16.9435 20.3882H11.7591H11.7583ZM16.2488 18.0237C15.7935 16.5917 14.7735 13.5765 14.3403 12.0586H14.3182C13.9709 13.5119 13.1036 16.0498 12.453 18.0237H16.2488Z" fill="white"/>
<path d="M22.4084 10.4966C22.4084 9.6073 23.0378 9 23.905 9C24.8376 9 25.3803 9.62933 25.3803 10.4966C25.3803 11.3638 24.7943 11.9932 23.8837 11.9932C22.9732 11.9932 22.4084 11.3859 22.4084 10.4966ZM22.5605 13.5984C22.5605 13.4897 22.6258 13.4464 22.7338 13.4464H25.033C25.1629 13.4464 25.2063 13.4684 25.2063 13.5984V23.9673C25.2063 24.0973 25.1629 24.1406 25.0109 24.1406H22.7764C22.6243 24.1406 22.5597 24.0752 22.5597 23.9453V13.5984H22.5605Z" fill="white"/>
</svg>
