<svg width="38" height="35" viewBox="0 0 38 35" fill="none" xmlns="http://www.w3.org/2000/svg">
<path d="M0.110518 33.4845C0.321034 32.9722 0.636667 32.5397 1.28258 31.8781C1.89873 31.2469 2.24291 30.8464 2.82473 30.0839C3.44485 29.2712 4.34127 27.7301 4.91903 26.4831C6.13052 23.8685 7 21.2865 8.53269 15.7514C10.1641 9.86008 10.9241 7.61172 12.0511 5.34454C12.4214 4.59944 12.9739 3.64451 13.2478 3.27575C14.3191 1.83389 15.3776 0.926171 16.5182 0.470937C17.4125 0.113997 18.0348 0.000283964 19.0942 1.53143e-07C19.8625 -9.44506e-05 20.2263 0.0436129 20.8618 0.212197C21.4598 0.370847 22.3046 0.770642 22.7479 1.10488C22.857 1.18709 23.0055 1.29238 23.0779 1.33883C23.2736 1.46447 24.2538 2.45856 24.4898 2.77066C24.8507 3.24803 25.0934 3.60611 25.4009 4.11517C25.7058 4.62016 26.4413 6.05805 26.6042 6.46787C26.6534 6.5918 26.8255 7.0231 26.9867 7.4263C27.6643 9.12236 28.2708 11.0427 29.3097 14.7817C29.9299 17.0133 30.5785 19.2813 30.8433 20.1444C31.2305 21.4061 32.0353 23.7608 32.2763 24.3367C32.2981 24.3888 32.3596 24.5378 32.4132 24.6678C33.1846 26.5435 33.4272 27.0466 34.2929 28.5647C34.4367 28.8169 35.2136 29.9909 35.389 30.2211C35.8454 30.82 36.0363 31.0384 36.8605 31.905C37.6432 32.7281 38 33.352 38 33.8981C38 34.2223 37.9022 34.4379 37.6612 34.6444C37.1855 35.0518 36.1066 35.059 35.2114 34.6607C34.4901 34.3397 33.0575 33.2228 31.9503 32.1179C30.2559 30.4271 29.1743 28.9093 27.1304 25.3537C26.9135 24.9764 26.681 24.5784 26.6136 24.4691C26.5462 24.3597 26.4433 24.1894 26.3851 24.0907C25.7369 22.9919 25.1629 22.1608 24.5457 21.4277C23.8161 20.5612 23.0326 19.9268 22.1582 19.4947C21.1523 18.9976 20.3478 18.8256 19.0355 18.8269C17.7275 18.8281 16.9358 19.0009 15.9511 19.4996C14.9358 20.0138 14.209 20.6295 13.3627 21.6924C12.5884 22.6648 12.2618 23.1714 10.8802 25.5429C9.83389 27.3391 9.53593 27.8239 8.85513 28.8376C7.27574 31.1892 5.57128 32.9387 3.52047 34.3128C3.08516 34.6044 2.79278 34.7394 2.27344 34.8885C1.90118 34.9953 1.77489 35.0094 1.30849 34.9955C0.821755 34.9812 0.746037 34.9664 0.49544 34.8377C0.279914 34.727 0.195121 34.65 0.109194 34.4873C-0.0368535 34.2103 -0.0363809 33.842 0.110518 33.4845Z" fill="#FEFEFE"/>
</svg>
