<svg width="23" height="35" viewBox="0 0 23 35" fill="none" xmlns="http://www.w3.org/2000/svg">
<path d="M5.72266 1H10.4453V10.4453H5.72266C3.11468 10.4453 1.00017 8.3307 1 5.72266C1 3.11463 3.11457 1 5.72266 1Z" stroke="white" stroke-width="2"/>
<path d="M17.1675 1C19.7755 1.00013 21.8902 3.11466 21.8902 5.72266C21.89 8.33055 19.7754 10.4452 17.1675 10.4453H12.4449V1H17.1675Z" stroke="white" stroke-width="2"/>
<path d="M5.72266 12.4448H10.4453V22.0366H5.72266C3.12655 22.0365 1.0001 19.9012 1 17.2407C1 14.5801 3.12654 12.4448 5.72266 12.4448Z" stroke="white" stroke-width="2"/>
<path d="M17.1675 12.4448C19.7635 12.445 21.8902 14.5802 21.8902 17.2407C21.8901 19.9012 19.7635 22.0365 17.1675 22.0366C14.5714 22.0366 12.4449 19.9013 12.4449 17.2407C12.4449 14.5801 14.5714 12.4448 17.1675 12.4448Z" stroke="white" stroke-width="2"/>
<path d="M5.72266 24.0364H10.4453V28.759C10.4452 31.3669 8.33055 33.4816 5.72266 33.4817C3.11465 33.4817 1.00013 31.367 1 28.759C1 26.151 3.11458 24.0364 5.72266 24.0364Z" stroke="white" stroke-width="2"/>
</svg>
