<svg width="35" height="35" viewBox="0 0 35 35" fill="none" xmlns="http://www.w3.org/2000/svg">
<rect x="1" y="1" width="32.9215" height="32.9215" stroke="white" stroke-width="2"/>
<path d="M8 10.2387C8 10.13 8.04333 10.0654 8.15201 10.0654C8.97667 10.0441 10.5812 10 12.1652 10C16.3737 10 17.9349 12.3425 17.9349 14.7291C17.9349 18.1783 15.267 19.6749 11.9911 19.6749H10.6245V24.1221C10.6245 24.2307 10.5812 24.2954 10.4512 24.2954H8.1733C8.06462 24.2954 8 24.252 8 24.1434V10.2387ZM10.6245 17.3537C10.9932 17.3757 11.2751 17.3757 11.9911 17.3757C13.813 17.3757 15.3537 16.7684 15.3537 14.7945C15.3537 13.2113 14.2257 12.2779 12.2298 12.2779C11.4705 12.2779 10.8632 12.2999 10.6245 12.3212V17.3537Z" fill="white"/>
<path d="M23.7479 15.4884C22.598 15.4884 22.208 15.9657 22.208 16.421C22.208 16.8763 22.5333 17.2236 23.922 17.7656C26.3952 18.6769 27.2412 19.6528 27.2412 21.1927C27.2412 23.232 25.6359 24.512 22.9681 24.512C21.6881 24.512 20.5602 24.2733 19.9095 23.9047C19.8009 23.8393 19.7575 23.796 19.7575 23.666V21.6054C19.7575 21.4968 19.8442 21.4534 19.9308 21.4968C20.8634 22.1041 22.0567 22.3647 23.0327 22.3647C24.1606 22.3647 24.7033 21.9741 24.7033 21.4101C24.7033 20.8461 24.2913 20.5208 22.946 19.9781C20.5815 19.1102 19.7355 18.1342 19.7355 16.5723C19.7355 14.9237 21.0801 13.3838 23.792 13.3838C25.0499 13.3838 26.0045 13.5571 26.5252 13.8178C26.6339 13.8831 26.6552 13.9698 26.6552 14.0785V15.987C26.6552 16.0957 26.5898 16.1603 26.4598 16.117C25.7872 15.7484 24.7026 15.4877 23.7487 15.4877L23.7479 15.4884Z" fill="white"/>
</svg>
