<svg width="35" height="35" viewBox="0 0 35 35" fill="none" xmlns="http://www.w3.org/2000/svg">
<path fill-rule="evenodd" clip-rule="evenodd" d="M2.48748 17.4995C2.48748 23.4417 5.94074 28.5771 10.9482 31.0107L3.78707 11.3897C2.95399 13.257 2.48748 15.323 2.48748 17.4995ZM27.6338 16.7419C27.6338 18.0271 27.14 19.5186 26.4909 21.5951L24.9936 26.5991L19.5685 10.461C20.4717 10.4136 21.2867 10.3178 21.2867 10.3178C22.0953 10.2223 22.0003 9.03361 21.1904 9.08126C21.1904 9.08126 18.7596 9.27188 17.1898 9.27188C15.7147 9.27188 13.2355 9.08126 13.2355 9.08126C12.4267 9.03361 12.3319 10.2704 13.1407 10.3178C13.1407 10.3178 13.9066 10.4136 14.715 10.461L17.0539 16.8695L13.7685 26.7228L8.30188 10.4615C9.2068 10.4141 10.0201 10.3183 10.0201 10.3183C10.8285 10.2228 10.7332 9.03409 9.92379 9.08175C9.92379 9.08175 7.49324 9.27237 5.9229 9.27237C5.64113 9.27237 5.30903 9.26479 4.95689 9.25428C7.64085 5.17847 12.2551 2.48757 17.4996 2.48757C21.4079 2.48757 24.9662 3.98148 27.637 6.42849C27.5722 6.42482 27.509 6.41651 27.4425 6.41651C25.9682 6.41651 24.9218 7.70123 24.9218 9.08102C24.9218 10.3176 25.6351 11.3648 26.3958 12.6016C26.9674 13.6016 27.6338 14.8866 27.6338 16.7419ZM17.7631 18.8126L13.2588 31.9012C14.6038 32.2964 16.0258 32.5129 17.4996 32.5129C19.2479 32.5129 20.9243 32.2106 22.4849 31.662C22.4445 31.5977 22.4081 31.5295 22.3781 31.4552L17.7631 18.8126ZM30.6721 10.2968C30.7366 10.7751 30.7731 11.2883 30.7731 11.8406C30.7731 13.3641 30.4886 15.0765 29.6316 17.2177L25.0462 30.476C29.5092 27.8733 32.5111 23.038 32.5111 17.4995C32.5113 14.8895 31.8446 12.4352 30.6721 10.2968ZM17.4996 0C27.1483 0 34.9998 7.8503 35 17.4995C35 27.1499 27.1483 35 17.4996 35C7.85101 35 0 27.1502 0 17.4995C0 7.84884 7.85052 0 17.4996 0ZM17.4996 34.1979C8.29308 34.1979 0.802525 26.7071 0.802525 17.4998C0.802525 8.29239 8.29284 0.802553 17.4996 0.802553C26.7064 0.802553 34.196 8.29288 34.196 17.4998C34.196 26.7066 26.7059 34.1979 17.4996 34.1979Z" fill="white"/>
</svg>
